<?xml version="1.0" encoding="UTF-8"?>
<svg width="25px" height="21px" viewBox="0 0 25 21" version="1.1" xmlns="http://www.w3.org/2000/svg" xmlns:xlink="http://www.w3.org/1999/xlink">
    <!-- Generator: sketchtool 52.5 (67469) - http://www.bohemiancoding.com/sketch -->
    <title>273D2D73-50D6-4AF8-9406-6AA09689F247</title>
    <desc>Created with sketchtool.</desc>
    <g id="Page-1" stroke="none" stroke-width="1" fill="none" fill-rule="evenodd">
        <g id="pixel-painter" transform="translate(-1195.000000, -199.000000)" fill="#DADADA" fill-rule="nonzero">
            <g id="Group-11" transform="translate(1195.909091, 198.000000)">
                <g id="shopping-cart" transform="translate(0.000000, 1.000000)">
                    <path d="M7.73255693,14.0001823 L7.73365554,14.0001823 C7.73457105,14.0001823 7.73548662,14 7.73640213,14 L20.4844093,14 C20.7982526,14 21.074193,13.7927344 21.1604358,13.4923177 L23.9729406,3.69231772 C24.0335486,3.48104167 23.991068,3.25390623 23.8583163,3.07854167 C23.7253815,2.90317711 23.5175565,2.8 23.296914,2.8 L6.11097218,2.8 L5.60834679,0.548151053 C5.53675246,0.22786456 5.25147364,0 4.92188325,0 L0.703126178,0 C0.31475884,0 0,0.313359387 0,0.7 C0,1.08664061 0.31475884,1.4 0.703126178,1.4 L4.35791746,1.4 C4.44690689,1.79903645 6.76319493,12.1761719 6.89649593,12.7731771 C6.14924127,13.0965625 5.62500942,13.8383073 5.62500942,14.7 C5.62500942,15.8579167 6.57130007,16.8 7.73438796,16.8 L20.4844093,16.8 C20.8727767,16.8 21.1875355,16.4866406 21.1875355,16.1 C21.1875355,15.7133594 20.8727767,15.4 20.4844093,15.4 L7.73438796,15.4 C7.34675304,15.4 7.03126178,15.0859114 7.03126178,14.7 C7.03126178,14.3146354 7.34565439,14.0010938 7.73255693,14.0001823 Z M22.3647225,4.2 L19.9539519,12.6 L8.29835375,12.6 L6.42335061,4.2 L22.3647225,4.2 Z" id="Shape"></path>
                    <path d="M7.2,18.8571429 C7.2,19.9914286 8.12285714,20.9142857 9.25714286,20.9142857 C10.3914286,20.9142857 11.3142857,19.9914286 11.3142857,18.8571429 C11.3142857,17.7228571 10.3914286,16.8 9.25714286,16.8 C8.12285714,16.8 7.2,17.7228571 7.2,18.8571429 Z M9.25714286,18.1714286 C9.63517856,18.1714286 9.94285714,18.4791072 9.94285714,18.8571429 C9.94285714,19.2351786 9.63517856,19.5428571 9.25714286,19.5428571 C8.87910715,19.5428571 8.57142857,19.2351786 8.57142857,18.8571429 C8.57142857,18.4791072 8.87910715,18.1714286 9.25714286,18.1714286 Z" id="Shape"></path>
                    <path d="M16.8,18.8571429 C16.8,19.9914286 17.7228571,20.9142857 18.8571429,20.9142857 C19.9914286,20.9142857 20.9142857,19.9914286 20.9142857,18.8571429 C20.9142857,17.7228571 19.9914286,16.8 18.8571429,16.8 C17.7228571,16.8 16.8,17.7228571 16.8,18.8571429 Z M18.8571429,18.1714286 C19.2351786,18.1714286 19.5428571,18.4791072 19.5428571,18.8571429 C19.5428571,19.2351786 19.2351786,19.5428571 18.8571429,19.5428571 C18.4791072,19.5428571 18.1714286,19.2351786 18.1714286,18.8571429 C18.1714286,18.4791072 18.4791072,18.1714286 18.8571429,18.1714286 Z" id="Shape"></path>
                </g>
            </g>
        </g>
    </g>
</svg>