<?xml version="1.0" encoding="UTF-8"?>
<svg width="19px" height="17px" viewBox="0 0 19 17" version="1.1" xmlns="http://www.w3.org/2000/svg" xmlns:xlink="http://www.w3.org/1999/xlink">
    <!-- Generator: sketchtool 52.5 (67469) - http://www.bohemiancoding.com/sketch -->
    <title>40568812-4B3F-438D-8E8C-EFC13281D0CC</title>
    <desc>Created with sketchtool.</desc>
    <g id="Page-1" stroke="none" stroke-width="1" fill="none" fill-rule="evenodd">
        <g id="pixel-painter" transform="translate(-221.000000, -148.000000)" fill-rule="nonzero">
            <g id="Group-7" transform="translate(221.000000, 147.000000)">
                <path d="M2.25015,6.37349308 L2.30908879,11.4896438 C2.30908864,11.4896305 2.30906937,11.4895881 2.30913108,11.4896433 C2.68001153,11.8213085 3.04481198,12.1580071 3.40352891,12.4997372 C3.75361243,12.8332428 4.07859911,13.1531518 4.37855561,13.4595832 C4.37855903,13.4595867 4.37856369,13.4595887 4.37856709,13.4595887 L16.8332643,13.6337936 L16.7339018,6.57610007 L2.25015,6.37349308 Z" id="Rectangle" stroke="#2B2B2B" stroke-width="2" fill="#DADADA" transform="translate(9.541707, 10.003643) rotate(-45.000000) translate(-9.541707, -10.003643) "></path>
                <path d="M8.83892531,17.4339591 L6.10389506,14.6992244 L5.04509165,16.342469 L8.0812579,17.4832935 C7.98990523,17.4489682 7.94367543,17.3470861 7.97800074,17.2557334 C8.00421285,17.1859731 8.07137385,17.1401568 8.14588885,17.1412025 L8.13185673,18.141104 L8.83892531,17.4339591 Z" id="Rectangle" stroke="#2B2B2B" stroke-width="2" fill="#2B2B2B" transform="translate(7.181880, 16.773778) rotate(-45.000000) translate(-7.181880, -16.773778) "></path>
                <polygon id="Rectangle" fill="#2B2B2B" transform="translate(6.030773, 13.352587) rotate(-45.000000) translate(-6.030773, -13.352587) " points="3.12620132 9.60426597 8.8312633 9.68432795 8.93534388 17.1009085 4.72413615 17.0418105 3.85589576 16.3012343 3.21113497 15.6564735"></polygon>
            </g>
        </g>
    </g>
</svg>
