<?xml version="1.0" encoding="UTF-8"?>
<svg width="32px" height="33px" viewBox="0 0 32 33" version="1.1" xmlns="http://www.w3.org/2000/svg" xmlns:xlink="http://www.w3.org/1999/xlink">
    <!-- Generator: sketchtool 52.5 (67469) - http://www.bohemiancoding.com/sketch -->
    <title>32FE0474-19E7-4321-9052-EAFDDA67F899</title>
    <desc>Created with sketchtool.</desc>
    <g id="Page-1" stroke="none" stroke-width="1" fill="none" fill-rule="evenodd">
        <g id="pixel-logo" transform="translate(-20.000000, -58.000000)">
            <g id="Group-3" transform="translate(20.000000, 58.000000)">
                <g id="Group">
                    <g id="path-0-link" fill="#DADADA">
                        <polygon id="path-0" points="0 0 32 0 32 22.5 21.3333333 33 0 33"></polygon>
                    </g>
                    <g id="path-1-link" transform="translate(19.692308, 20.777778)" fill="#2B2B2B">
                        <polygon id="path-1" points="0 0 11.0769231 0 0 11"></polygon>
                    </g>
                </g>
                <path d="M19,10.9193084 C19,12.3237342 18.4892623,13.4546067 17.4677716,14.3119597 C16.446281,15.1693126 15.089634,15.5979827 13.3977901,15.5979827 C12.9668487,15.5979827 12.3603477,15.5408267 11.5782689,15.426513 L11.5782689,21.6974063 C11.5782689,22.5955857 11.6381209,23.1222375 11.7578269,23.2773775 C11.8775328,23.4325176 12.3204382,23.5264167 13.0865562,23.5590778 C13.5174976,23.5427473 13.732965,23.6162336 13.732965,23.7795389 C13.732965,23.9265137 13.6052806,24 13.3499079,24 L12.9907919,24 C12.9109879,24 12.5399051,23.9918349 11.8775322,23.9755043 C11.2151594,23.9591738 10.5328457,23.9510086 9.8305709,23.9510086 L7.02946593,23.9755043 C6.5027598,23.9755043 6.1995093,23.959174 6.11970534,23.926513 C6.03990138,23.8938519 6,23.844861 6,23.7795389 C6,23.6488946 6.12768442,23.5835735 6.38305709,23.5835735 C7.16513589,23.567243 7.63198205,23.4937567 7.78360958,23.3631124 C7.9352371,23.2324681 8.01104972,22.8568715 8.01104972,22.2363112 L8.01104972,9.64553314 C8.01104972,8.60037902 7.97114834,7.97166293 7.89134438,7.75936599 C7.81154042,7.54706906 7.40454634,7.44092219 6.67034991,7.44092219 C6.23940853,7.44092219 6.02394107,7.37560104 6.02394107,7.24495677 C6.02394107,7.09798197 6.22344797,7.02449568 6.62246777,7.02449568 L13.4696133,7 C15.1454964,7 16.3983998,7.26128461 17.228361,7.78386167 C18.4094596,8.5350662 19,9.58020464 19,10.9193084 Z M15.145488,11.0662824 C15.145488,8.64936352 14.4033223,7.44092219 12.9189687,7.44092219 C12.0251643,7.44092219 11.5782689,7.84101425 11.5782689,8.64121037 L11.5782689,15.0590778 C12.2326613,15.0590778 12.6795568,15.0345824 12.9189687,14.9855908 C13.3818317,14.9039381 13.7808455,14.7161398 14.1160221,14.4221902 C14.8023362,13.8016299 15.145488,12.6830052 15.145488,11.0662824 Z" id="P" fill="#2B2B2B"></path>
            </g>
        </g>
    </g>
</svg>