<?xml version="1.0" encoding="UTF-8"?>
<svg width="20px" height="22px" viewBox="0 0 20 22" version="1.1" xmlns="http://www.w3.org/2000/svg" xmlns:xlink="http://www.w3.org/1999/xlink">
    <!-- Generator: sketchtool 52.5 (67469) - http://www.bohemiancoding.com/sketch -->
    <title>E920AB71-C90E-4883-8A3B-FB0E633CECD8</title>
    <desc>Created with sketchtool.</desc>
    <g id="Page-1" stroke="none" stroke-width="1" fill="none" fill-rule="evenodd">
        <g id="pixel-painter" transform="translate(-1200.000000, -247.000000)" fill-rule="nonzero">
            <g id="Group-15" transform="translate(1201.000000, 248.000000)">
                <path d="M8.48015864,4.16666667 L6.66666667,0.616584365 C7.83275385,-7.77156117e-16 8.66988764,-0.154146091 9.17806805,0.154146091 C9.94033867,0.616584365 11.9264776,1.07902264 13.0553426,0.616584365 C13.8079192,0.308292183 13.0324643,1.49165295 10.7289779,4.16666667 L10.1501023,4.16666667 C13.3444698,10.6069321 17.5,9.30714987 17.5,13.8713242 C17.5,18.4354985 14.278845,20 8.59208624,20 C2.90532751,20 -0.808323382,15.8719727 0.15066982,12.2231213 C0.789998621,9.79055365 3.37010168,7.10506878 7.890979,4.16666667 L8.48015864,4.16666667 Z" id="Combined-Shape" stroke="#DADADA" stroke-width="1.5" stroke-linejoin="round"></path>
                <polygon id="Star" fill="#D8D8D8" points="9 14.5 7.23664424 15.427051 7.57341523 13.4635255 6.14683045 12.072949 8.11832212 11.7864745 9 10 9.88167788 11.7864745 11.8531695 12.072949 10.4265848 13.4635255 10.7633558 15.427051"></polygon>
                <path d="M7.61608499,3.82188921 C8.56877855,4.87286698 9.73665724,5.13561142 11.1197211,4.61012253" id="Path-9" stroke="#D8D8D8" stroke-width="1.5" stroke-linecap="round"></path>
            </g>
        </g>
    </g>
</svg>