<?xml version="1.0" encoding="UTF-8"?>
<svg width="19px" height="20px" viewBox="0 0 19 20" version="1.1" xmlns="http://www.w3.org/2000/svg" xmlns:xlink="http://www.w3.org/1999/xlink">
    <!-- Generator: sketchtool 52.5 (67469) - http://www.bohemiancoding.com/sketch -->
    <title>B57524F6-3BF0-43DA-9FA1-D48599747ED7</title>
    <desc>Created with sketchtool.</desc>
    <g id="Page-1" stroke="none" stroke-width="1" fill="none" fill-rule="evenodd">
        <g id="pixel-painter" transform="translate(-222.000000, -97.000000)" fill="#0D0D0D" fill-rule="nonzero">
            <g id="001-pencil" transform="translate(222.000000, 97.000000)">
                <path d="M17.9266066,1.37173556 C17.2705717,0.71390661 16.3954638,0.352130294 15.4664758,0.352130294 C14.5374877,0.352130294 13.663564,0.713314504 13.006937,1.37055135 L2.54294386,11.7744329 C2.48077449,11.8360119 2.43340735,11.910025 2.40380289,11.9917356 L0.0354459216,18.5048935 C-0.0409335907,18.7150908 0.00820981642,18.952525 0.162745109,19.115354 C0.276426243,19.2349592 0.432145714,19.2994987 0.592601899,19.2994987 C0.650626645,19.2994987 0.70865139,19.2912092 0.766084047,19.2734461 L6.65677992,17.4663408 C6.74914584,17.4385119 6.83322252,17.3875908 6.90190487,17.3194987 L17.9271987,6.29390661 C18.5856019,5.63726187 18.9473684,4.76213029 18.9473684,3.83252503 C18.9467763,2.90351187 18.5856019,2.0289724 17.9266066,1.37173556 Z M5.97587729,16.4366698 L3.77093695,17.1140382 C3.64245359,16.7368671 3.44232742,16.4029198 3.16937428,16.1299592 C2.9319465,15.8937092 2.656625,15.7101566 2.36650127,15.5609461 L3.37542134,12.7863408 L4.7372266,12.7863408 L4.7372266,13.9705513 C4.7372266,14.2979856 5.00189049,14.5626566 5.32931584,14.5626566 L6.37435335,14.5626566 L5.97587729,16.4366698 Z M14.6914309,7.85469608 L7.47741561,15.0689066 L7.68464685,14.0937092 C7.72135638,13.9184461 7.67754178,13.7366698 7.56504482,13.5981171 C7.45254786,13.4589724 7.28380243,13.3784461 7.10558357,13.3784461 L5.92140508,13.3784461 L5.92140508,12.1942356 C5.92140508,11.8673935 5.6561491,11.6021303 5.32931584,11.6021303 L4.39499902,11.6021303 L11.4367164,4.60048556 L11.4438214,4.60699871 C11.8772308,4.17298556 12.4545178,3.93436714 13.0673302,3.93436714 C13.6801425,3.93436714 14.2580216,4.17298556 14.6908389,4.60699871 C15.1236561,5.04101187 15.3646364,5.6177224 15.3646364,6.23114345 C15.3646364,6.8445645 15.1260244,7.42068293 14.6914309,7.85469608 Z M17.0893924,5.45666977 L16.5375652,6.00910398 C16.4842772,5.16298556 16.1331683,4.37430135 15.5292372,3.76976187 C14.9247141,3.16463029 14.1354591,2.81410398 13.2869953,2.76140661 L13.842375,2.21015661 L13.8435591,2.2089724 C14.2757843,1.77495924 14.8530713,1.53634082 15.4664758,1.53634082 C16.0798802,1.53634082 16.6565751,1.77495924 17.0893924,2.2089724 C17.5239859,2.64298556 17.7631899,3.21969608 17.7631899,3.83252503 C17.7631899,4.44653819 17.5251701,5.02324871 17.0893924,5.45666977 Z M13.1999581,5.26245924 L7.27906572,11.1835119 C7.04755882,11.415025 7.04755882,11.7892356 7.27906572,12.0207487 C7.39393103,12.1362092 7.54609796,12.1942356 7.69767281,12.1942356 C7.84924766,12.1942356 8.00023041,12.1362092 8.11627991,12.0207487 L14.0371723,6.09969608 C14.2686792,5.86818293 14.2686792,5.4939724 14.0371723,5.26245924 C13.8050733,5.03094608 13.431465,5.03094608 13.1999581,5.26245924 Z" id="Shape"></path>
            </g>
        </g>
    </g>
</svg>
