<?xml version="1.0" encoding="UTF-8"?>
<svg width="18px" height="21px" viewBox="0 0 18 21" version="1.1" xmlns="http://www.w3.org/2000/svg" xmlns:xlink="http://www.w3.org/1999/xlink">
    <!-- Generator: sketchtool 52.5 (67469) - http://www.bohemiancoding.com/sketch -->
    <title>1EF1D651-9AB4-4E0E-8CA5-49E04BEDC575</title>
    <desc>Created with sketchtool.</desc>
    <g id="Page-1" stroke="none" stroke-width="1" fill="none" fill-rule="evenodd">
        <g id="pixel-painter" transform="translate(-1201.000000, -147.000000)" fill-rule="nonzero">
            <g id="Group-10" transform="translate(1201.000000, 148.000000)">
                <rect id="Rectangle" fill="#D8D8D8" x="3.52941176" y="18.8235294" width="9.41176471" height="1.17647059" rx="0.588235294"></rect>
                <rect id="Rectangle" fill="#D8D8D8" x="5.88235294" y="16.4705882" width="4.70588235" height="1.17647059" rx="0.588235294"></rect>
                <rect id="Rectangle" fill="#D8D8D8" x="7.05882353" y="12.9411765" width="2.35294118" height="4.70588235"></rect>
                <path d="M2.91718837,0.177141116 L14.0583268,0.177141116 C14.8523153,4.97929099 14.8523153,8.04368273 14.0583268,9.37031633 C12.8673441,11.3602667 10.6820889,12.8261802 8.52681394,12.8261802 C6.37153899,12.8261802 3.95194568,11.2886512 2.91718837,9.37031633 C2.22735017,8.09142644 2.22735017,5.02703471 2.91718837,0.177141116 Z" id="Path-3" stroke="#DADADA"></path>
                <path d="M2.69995636,3.42857143 L-1.13686838e-13,3.42857143 C-1.13686838e-13,7.20589479 1.08289531,9.09455647 3.24868593,9.09455647 C2.66507193,7.93907977 2.48216208,6.05041809 2.69995636,3.42857143 Z" id="Path-4" fill="#D8D8D8"></path>
                <path d="M16.8176034,3.42857143 L14.1176471,3.42857143 C14.1176471,7.20589479 15.2005424,9.09455647 17.366333,9.09455647 C16.782719,7.93907977 16.5998091,6.05041809 16.8176034,3.42857143 Z" id="Path-4" fill="#D8D8D8" transform="translate(15.741990, 6.261564) scale(-1, 1) translate(-15.741990, -6.261564) "></path>
                <polygon id="Star" fill="#D8D8D8" points="8.5 7.75 7.03053687 8.52254249 7.31117935 6.88627124 6.12235871 5.72745751 7.76526843 5.48872876 8.5 4 9.23473157 5.48872876 10.8776413 5.72745751 9.68882065 6.88627124 9.96946313 8.52254249"></polygon>
            </g>
        </g>
    </g>
</svg>