<?xml version="1.0" encoding="UTF-8"?>
<svg width="18px" height="18px" viewBox="0 0 18 18" version="1.1" xmlns="http://www.w3.org/2000/svg" xmlns:xlink="http://www.w3.org/1999/xlink">
    <!-- Generator: sketchtool 52.5 (67469) - http://www.bohemiancoding.com/sketch -->
    <title>3EDC0752-55A9-4699-B3B8-435DE11C6DD9</title>
    <desc>Created with sketchtool.</desc>
    <g id="Page-1" stroke="none" stroke-width="1" fill="none" fill-rule="evenodd">
        <g id="pixel-painter" transform="translate(-222.000000, -292.000000)" fill="#DADADA" fill-rule="nonzero">
            <g id="004-save-file-option" transform="translate(222.000000, 292.000000)">
                <path d="M17.7657071,4.96855888 C17.6094845,4.59372819 17.4218613,4.29676148 17.2030019,4.0780692 L13.9217108,0.796782006 C13.7031387,0.578212864 13.4061679,0.390633337 13.0311679,0.234289702 C12.6563731,0.0781102491 12.3125274,0 12.0000821,0 L1.12491791,0 C0.812513682,0 0.546820271,0.109305094 0.328042907,0.328079465 C0.109265543,0.546730698 0,0.812379428 0,1.12494356 L0,16.8750154 C0,17.1876616 0.109265543,17.4533103 0.328042907,17.6720026 C0.546820271,17.8905718 0.812513682,18 1.12491791,18 L16.8751642,18 C17.1878557,18 17.4534671,17.8905718 17.6721623,17.6720026 C17.8907345,17.4533103 18,17.1876616 18,16.8750154 L18,6 C18,5.68739482 17.9219297,5.34367689 17.7657071,4.96855888 Z M7.50008209,1.87485121 C7.50008209,1.77330378 7.53722909,1.6855888 7.61148205,1.61121373 C7.68565291,1.53716702 7.77357432,1.50006157 7.87512314,1.50006157 L10.1252463,1.50006157 C10.2265488,1.50006157 10.3144292,1.53708492 10.3886411,1.61121373 C10.4630582,1.6855888 10.5001642,1.77330378 10.5001642,1.87485121 L10.5001642,5.62488199 C10.5001642,5.72659361 10.462812,5.81443172 10.3886411,5.88868366 C10.3144292,5.96268932 10.2265488,5.99983582 10.1252463,5.99983582 L7.87512314,5.99983582 C7.77357432,5.99983582 7.68561187,5.96281246 7.61148205,5.88868366 C7.53722909,5.81430858 7.50008209,5.72659361 7.50008209,5.62488199 L7.50008209,1.87485121 Z M13.5002873,16.5000616 L4.49991791,16.5000616 L4.49991791,11.999959 L13.5002873,11.999959 L13.5002873,16.5000616 Z M16.5005336,16.5000616 L15.0002052,16.5000616 L14.9999179,16.5000616 L14.9999179,11.624923 C14.9999179,11.3122768 14.8906113,11.0467923 14.671916,10.8279358 C14.4532208,10.6092435 14.1875684,10.4998153 13.8752052,10.4998153 L4.12495895,10.4998153 C3.81243159,10.4998153 3.54673818,10.6092435 3.32796081,10.8279358 C3.10930659,11.0466281 2.99991791,11.3122768 2.99991791,11.624923 L2.99991791,16.5000616 L1.49987686,16.5000616 L1.49987686,1.49989739 L2.99987686,1.49989739 L2.99987686,6.37495382 C2.99987686,6.68751796 3.1091424,6.95304355 3.32791977,7.17181792 C3.54669713,7.39046915 3.81239054,7.49989739 4.12491791,7.49989739 L10.8752463,7.49989739 C11.1876095,7.49989739 11.4535491,7.39046915 11.6719571,7.17181792 C11.8905292,6.95316669 12.0000821,6.68751796 12.0000821,6.37495382 L12.0000821,1.49989739 C12.1172285,1.49989739 12.2694697,1.53889094 12.4571749,1.61700119 C12.6448391,1.69507039 12.7775832,1.77318064 12.8556945,1.85129089 L16.1489301,5.14439929 C16.2270003,5.22250954 16.3051527,5.35742725 16.383223,5.54874194 C16.4615806,5.74022083 16.5004926,5.89065386 16.5004926,6 L16.5005336,16.5000616 Z" id="Shape"></path>
            </g>
        </g>
    </g>
</svg>
