<?xml version="1.0" encoding="UTF-8"?>
<svg width="19px" height="20px" viewBox="0 0 19 20" version="1.1" xmlns="http://www.w3.org/2000/svg" xmlns:xlink="http://www.w3.org/1999/xlink">
    <!-- Generator: sketchtool 52.5 (67469) - http://www.bohemiancoding.com/sketch -->
    <title>8A7EB9DB-4ECE-43AA-B5D3-A7D7772CF59A</title>
    <desc>Created with sketchtool.</desc>
    <g id="Page-1" stroke="none" stroke-width="1" fill="none" fill-rule="evenodd">
        <g id="pixel-painter" transform="translate(-222.000000, -340.000000)" fill="#DADADA">
            <g id="006-trash" transform="translate(222.000000, 340.000000)">
                <path d="M18.4001717,3.41510848 C18.3213506,3.33796225 18.2204634,3.29918601 18.0978324,3.29918601 L14.0335974,3.29918601 L13.1129439,1.14703659 C12.9814681,0.82906234 12.7446825,0.558396011 12.4029098,0.334992466 C12.0608145,0.111634061 11.7142969,0 11.3636792,0 L7.15483917,0 C6.80422151,0 6.45779596,0.111634061 6.11583894,0.334992466 C5.77383585,0.558396011 5.53709637,0.829017199 5.40552837,1.14703659 L4.48487485,3.29918601 L0.420824115,3.29918601 C0.297962822,3.29918601 0.197259864,3.33796225 0.118300638,3.41510848 C0.0395717477,3.49243526 0,3.59129438 0,3.7115504 L0,4.53645975 C0,4.65671578 0.0393874788,4.75557489 0.118300638,4.83276626 C0.197259864,4.9100479 0.298147091,4.94868873 0.420824115,4.94868873 L1.68334253,4.94868873 L1.68334253,17.218053 C1.68334253,17.9314186 1.88940123,18.5391538 2.30147257,19.0416651 C2.71363605,19.5444924 3.20904301,19.7956577 3.78778557,19.7956577 L14.7306867,19.7956577 C15.3095675,19.7956577 15.8049284,19.5358253 16.2170458,19.0161604 C16.6291171,18.4961343 16.8350376,17.8797771 16.8350376,17.1666824 L16.8350376,4.94868873 L18.0977864,4.94868873 C18.2204173,4.94868873 18.3213506,4.9100479 18.4001256,4.83276626 C18.4788084,4.75562003 18.5185184,4.65671578 18.5185184,4.53645975 L18.5185184,3.7115504 C18.5186105,3.59129438 18.4788545,3.49243526 18.4001717,3.41510848 Z M6.95762537,1.7911105 C7.01894085,1.71382886 7.09352369,1.66643065 7.18118962,1.6493673 L11.3504579,1.6493673 C11.4381238,1.66656607 11.5128449,1.71391914 11.5740682,1.7911105 L12.2056038,3.29900544 L6.31314487,3.29900544 L6.95762537,1.7911105 Z M15.1516951,17.1667726 C15.1516951,17.3557335 15.1211065,17.5297978 15.0596067,17.6886495 C14.998153,17.847456 14.9344421,17.9634688 14.8688423,18.0365072 C14.8029201,18.1097261 14.7572214,18.1460647 14.7307328,18.1460647 L3.78783164,18.1460647 C3.76152725,18.1460647 3.71573643,18.1097261 3.64981423,18.0365072 C3.58398416,17.9634688 3.52036532,17.847456 3.45895771,17.6886495 C3.39764223,17.5297978 3.36696146,17.3555529 3.36696146,17.1667726 L3.36696146,4.94868873 L15.1516951,4.94868873 L15.151649,17.1667726 L15.1516951,17.1667726 Z" id="Shape" fill-rule="nonzero"></path>
                <path d="M4.71998039,15.9642401 L5.21999407,15.9642401 C5.29298058,15.9642401 5.35294062,15.9253961 5.39971001,15.8476171 C5.44647939,15.7695655 5.46998723,15.6703883 5.46998723,15.5491312 L5.46998723,8.07771695 C5.46998723,7.9567325 5.44647939,7.85723722 5.39971001,7.7793674 C5.35280379,7.70172473 5.29300795,7.66283525 5.21999407,7.66283525 L4.71998039,7.66283525 C4.64699388,7.66283525 4.5871433,7.7016793 4.54026445,7.7793674 C4.49344034,7.85723722 4.46998723,7.9567325 4.46998723,8.07771695 L4.46998723,15.5491312 C4.46998723,15.6703883 4.49335824,15.769611 4.54026445,15.8476171 C4.5871433,15.9253506 4.64699388,15.9642401 4.71998039,15.9642401 Z" id="Path"></path>
                <path d="M7.65358283,15.9642401 L8.15362388,15.9642401 C8.22658702,15.9642401 8.28652298,15.9253961 8.33326755,15.8476171 C8.38028581,15.7695655 8.40357599,15.6703883 8.40357599,15.5491312 L8.40357599,8.07771695 C8.40357599,7.9567325 8.38025844,7.85723722 8.33326755,7.7793674 C8.28652298,7.70172473 8.22658702,7.66283525 8.15362388,7.66283525 L7.65358283,7.66283525 C7.58067443,7.66283525 7.52073847,7.7016793 7.47385706,7.7793674 C7.42694828,7.85723722 7.40357599,7.9567325 7.40357599,8.07771695 L7.40357599,15.5491312 C7.40357599,15.6703883 7.42694828,15.769611 7.47385706,15.8476171 C7.52071111,15.9253506 7.58067443,15.9642401 7.65358283,15.9642401 Z" id="Path"></path>
                <path d="M10.3828977,15.9642401 L10.8828841,15.9642401 C10.9559333,15.9642401 11.0158725,15.9253961 11.0627018,15.8476171 C11.109531,15.7695655 11.1328225,15.6703883 11.1328225,15.5491312 L11.1328225,8.07771695 C11.1328225,7.9567325 11.1095037,7.85723722 11.0627018,7.7793674 C11.0158725,7.70172473 10.9559333,7.66283525 10.8828841,7.66283525 L10.3828977,7.66283525 C10.3098211,7.66283525 10.2500735,7.7016793 10.2030527,7.7793674 C10.1562234,7.85723722 10.1328225,7.9567325 10.1328225,8.07771695 L10.1328225,15.5491312 C10.1328225,15.6703883 10.1562234,15.769611 10.2030527,15.8476171 C10.2500735,15.9253506 10.3098211,15.9642401 10.3828977,15.9642401 Z" id="Path"></path>
                <path d="M13.3828977,15.9642401 L13.8828841,15.9642401 C13.9559333,15.9642401 14.0158725,15.9253961 14.0627018,15.8476171 C14.109531,15.7695655 14.1328225,15.6703883 14.1328225,15.5491312 L14.1328225,8.07771695 C14.1328225,7.9567325 14.1095037,7.85723722 14.0627018,7.7793674 C14.0158725,7.70172473 13.9559333,7.66283525 13.8828841,7.66283525 L13.3828977,7.66283525 C13.3098211,7.66283525 13.2500735,7.7016793 13.2030527,7.7793674 C13.1562234,7.85723722 13.1328225,7.9567325 13.1328225,8.07771695 L13.1328225,15.5491312 C13.1328225,15.6703883 13.1562234,15.769611 13.2030527,15.8476171 C13.2500735,15.9253506 13.3098211,15.9642401 13.3828977,15.9642401 Z" id="Path"></path>
            </g>
        </g>
    </g>
</svg>